<svg width="1140" height="458" viewBox="0 0 1140 458" fill="none" xmlns="http://www.w3.org/2000/svg">
<g filter="url(#filter0_d_3047_23)">
<path d="M72.8698 317.41C50.1966 317.41 33.05 311.033 21.43 298.279C9.81 285.242 4 266.677 4 242.586V225.581H48.2127V245.987C48.2127 265.26 56.29 274.897 72.4447 274.897C80.3803 274.897 86.332 272.629 90.2998 268.094C94.551 263.276 96.6767 255.624 96.6767 245.137C96.6767 232.666 93.8425 221.755 88.1742 212.402C82.5059 202.765 72.0196 191.286 56.7152 177.965C37.4429 160.96 23.9807 145.655 16.3285 132.051C8.67634 118.163 4.85024 102.574 4.85024 85.2855C4.85024 61.7613 10.802 43.6221 22.7054 30.868C34.6088 17.8304 51.8971 11.3117 74.5703 11.3117C96.9601 11.3117 113.823 17.8304 125.16 30.868C136.78 43.6221 142.59 62.0447 142.59 86.1358V98.4648H98.3771V83.1598C98.3771 72.9566 96.3932 65.5875 92.4254 61.0527C88.4576 56.2345 82.6476 53.8254 74.9954 53.8254C59.4076 53.8254 51.6137 63.3201 51.6137 82.3096C51.6137 93.0797 54.4478 103.141 60.1161 112.494C66.0679 121.847 76.6959 133.184 92.0003 146.505C111.556 163.511 125.018 178.957 132.387 192.845C139.756 206.733 143.44 223.03 143.44 241.736C143.44 266.11 137.347 284.817 125.16 297.854C113.256 310.892 95.8264 317.41 72.8698 317.41Z" fill="white"/>
<path d="M153.248 15.563H200.011V136.727H250.176V15.563H296.939V313.159H250.176V179.241H200.011V313.159H153.248V15.563Z" fill="white"/>
<path d="M382.355 317.41C359.399 317.41 341.827 310.892 329.64 297.854C317.453 284.817 311.36 266.394 311.36 242.586V86.1358C311.36 62.3281 317.453 43.9055 329.64 30.868C341.827 17.8304 359.399 11.3117 382.355 11.3117C405.312 11.3117 422.884 17.8304 435.071 30.868C447.257 43.9055 453.351 62.3281 453.351 86.1358V242.586C453.351 266.394 447.257 284.817 435.071 297.854C422.884 310.892 405.312 317.41 382.355 317.41ZM382.355 274.897C398.51 274.897 406.587 265.118 406.587 245.562V83.1598C406.587 63.6035 398.51 53.8254 382.355 53.8254C366.201 53.8254 358.124 63.6035 358.124 83.1598V245.562C358.124 265.118 366.201 274.897 382.355 274.897Z" fill="white"/>
<path d="M502.871 58.0767H453.982V15.563H598.523V58.0767H549.634V313.159H502.871V58.0767Z" fill="white"/>
<path d="M664.952 317.41C642.279 317.41 625.132 311.033 613.512 298.279C601.892 285.242 596.082 266.677 596.082 242.586V225.581H640.295V245.987C640.295 265.26 648.372 274.897 664.527 274.897C672.463 274.897 678.414 272.629 682.382 268.094C686.633 263.276 688.759 255.624 688.759 245.137C688.759 232.666 685.925 221.755 680.257 212.402C674.588 202.765 664.102 191.286 648.798 177.965C629.525 160.96 616.063 145.655 608.411 132.051C600.759 118.163 596.933 102.574 596.933 85.2855C596.933 61.7613 602.884 43.6221 614.788 30.868C626.691 17.8304 643.979 11.3117 666.653 11.3117C689.042 11.3117 705.906 17.8304 717.242 30.868C728.862 43.6221 734.672 62.0447 734.672 86.1358V98.4648H690.46V83.1598C690.46 72.9566 688.476 65.5875 684.508 61.0527C680.54 56.2345 674.73 53.8254 667.078 53.8254C651.49 53.8254 643.696 63.3201 643.696 82.3096C643.696 93.0797 646.53 103.141 652.198 112.494C658.15 121.847 668.778 133.184 684.083 146.505C703.638 163.511 717.101 178.957 724.469 192.845C731.838 206.733 735.522 223.03 735.522 241.736C735.522 266.11 729.429 284.817 717.242 297.854C705.339 310.892 687.909 317.41 664.952 317.41Z" fill="white"/>
<path d="M847.492 15.563H894.256V140.978L953.773 15.563H1000.54L944.845 124.823L1001.39 313.159H952.497L912.961 180.516L894.256 218.353V313.159H847.492V15.563Z" fill="white"/>
<path d="M1066.19 317.41C1043.52 317.41 1026.23 311.033 1014.33 298.279C1002.42 285.242 996.471 266.677 996.471 242.586V86.1358C996.471 62.0447 1002.42 43.6221 1014.33 30.868C1026.23 17.8304 1043.52 11.3117 1066.19 11.3117C1088.86 11.3117 1106.15 17.8304 1118.06 30.868C1129.96 43.6221 1135.91 62.0447 1135.91 86.1358V111.644H1091.7V83.1598C1091.7 63.6035 1083.62 53.8254 1067.47 53.8254C1051.31 53.8254 1043.23 63.6035 1043.23 83.1598V245.987C1043.23 265.26 1051.31 274.897 1067.47 274.897C1083.62 274.897 1091.7 265.26 1091.7 245.987V187.744H1068.32V145.23H1135.91V242.586C1135.91 266.677 1129.96 285.242 1118.06 298.279C1106.15 311.033 1088.86 317.41 1066.19 317.41Z" fill="white"/>
<path d="M798.204 190.553C793.396 189.414 789.221 187.832 785.678 185.808C782.262 183.657 779.479 181.253 777.328 178.596C775.177 175.938 773.595 173.155 772.583 170.245C771.571 167.208 771.065 164.234 771.065 161.324C771.065 154.998 772.836 150.127 776.379 146.71C779.922 143.167 784.35 141.396 789.664 141.396C793.207 141.396 796.243 142.345 798.774 144.243C801.304 146.014 803.392 148.418 805.037 151.455C806.681 154.492 807.883 158.035 808.643 162.084C809.402 166.006 809.781 170.118 809.781 174.42C809.781 177.33 809.655 180.24 809.402 183.151C809.149 185.934 808.706 188.781 808.073 191.691C805.037 205.356 800.545 217.756 794.598 228.891C788.778 239.899 782.136 249.388 774.671 257.36C767.332 265.205 759.488 271.278 751.137 275.58C742.787 279.755 734.626 281.843 726.655 281.843C721.214 281.843 716.027 281.084 711.092 279.566C706.284 278.047 701.982 275.517 698.187 271.974C694.517 268.431 691.607 263.813 689.456 258.119C687.306 252.299 686.23 245.15 686.23 236.672C686.23 226.17 688.255 213.644 692.303 199.093C696.479 184.542 703.501 167.461 713.37 147.849C727.54 120.392 741.774 95.7824 756.072 74.0194C762.145 64.7828 768.534 55.736 775.24 46.879C781.946 38.0219 788.652 30.1139 795.357 23.1548C802.19 16.1957 808.896 10.6284 815.475 6.45297C822.181 2.15099 828.507 0 834.454 0C835.213 0 836.541 0.126529 838.439 0.379587C840.464 0.632644 842.488 1.32855 844.512 2.46731C846.537 3.47954 848.308 5.12442 849.826 7.40194C851.471 9.55293 852.294 12.5896 852.294 16.512C852.294 21.1936 851.028 27.1404 848.498 34.3526C846.094 41.4382 842.425 49.3463 837.49 58.0768C832.682 66.6807 826.672 75.9173 819.46 85.7866C812.375 95.5293 804.151 105.335 794.788 115.205C785.552 125.074 775.24 134.753 763.853 144.243C752.592 153.733 740.319 162.59 727.034 170.814C722.606 180.43 718.873 189.161 715.837 197.005C712.927 204.724 710.586 211.746 708.815 218.073C707.043 224.272 705.778 229.776 705.019 234.585C704.26 239.393 703.88 243.568 703.88 247.111C703.88 252.046 704.513 256.158 705.778 259.447C707.17 262.611 709.005 265.141 711.282 267.039C713.559 268.811 716.153 270.076 719.063 270.835C721.973 271.594 725.01 271.974 728.173 271.974C734.12 271.974 739.876 270.456 745.444 267.419C751.137 264.382 756.514 260.46 761.575 255.652C766.636 250.717 771.255 245.213 775.43 239.14C779.732 233.066 783.464 227.056 786.627 221.109C789.79 215.036 792.384 209.342 794.409 204.028C796.433 198.587 797.698 194.095 798.204 190.553ZM735.005 153.543C746.646 145.571 757.337 137.157 767.079 128.3C776.948 119.443 785.868 110.586 793.839 101.729C801.81 92.7457 808.832 84.0152 814.906 75.5378C820.979 66.9338 826.04 58.8992 830.089 51.434C834.137 43.9688 837.174 37.326 839.198 31.5057C841.349 25.5588 842.425 20.7507 842.425 17.0814C842.425 13.7916 841.223 12.1468 838.819 12.1468C834.264 12.1468 828.76 14.6141 822.307 19.5487C815.981 24.4833 808.579 32.5179 800.102 43.6525C791.752 54.787 782.136 69.3378 771.255 87.3049C760.5 105.272 748.417 127.351 735.005 153.543ZM799.533 180.683C799.659 179.544 799.723 178.406 799.723 177.267C799.849 176.128 799.912 175.053 799.912 174.04C799.912 167.208 799.027 161.704 797.255 157.528C795.484 153.353 792.954 151.265 789.664 151.265C788.905 151.265 788.019 151.392 787.007 151.645C786.121 151.771 785.172 152.214 784.16 152.973C783.274 153.606 782.515 154.555 781.883 155.82C781.25 157.086 780.934 158.73 780.934 160.755C780.934 165.943 782.705 170.245 786.248 173.661C789.917 176.951 794.345 179.291 799.533 180.683Z" fill="#FFD755"/>
<path d="M852.445 234.395C847.511 239.836 842.513 244.897 837.452 249.578C832.391 254.133 827.393 258.119 822.459 261.535C817.525 264.952 812.653 267.672 807.845 269.696C803.164 271.594 798.609 272.543 794.181 272.543C789.246 272.543 784.755 271.658 780.706 269.886C776.784 267.988 773.367 265.331 770.457 261.915C767.674 258.499 765.523 254.45 764.005 249.768C762.486 245.086 761.727 239.899 761.727 234.205C761.727 226.613 763.309 218.705 766.472 210.481C769.635 202.256 773.684 194.285 778.618 186.567C783.679 178.722 789.246 171.32 795.32 164.361C801.519 157.402 807.529 151.392 813.349 146.331L821.51 152.024C819.992 154.175 817.904 157.149 815.247 160.945C812.59 164.741 809.743 169.169 806.707 174.23C803.67 179.165 800.57 184.542 797.407 190.363C794.371 196.183 791.587 202.13 789.057 208.203C786.526 214.277 784.438 220.35 782.794 226.423C781.275 232.497 780.516 238.191 780.516 243.505C780.516 246.035 780.706 248.503 781.086 250.907C781.592 253.184 782.351 255.209 783.363 256.98C784.502 258.752 785.957 260.143 787.728 261.156C789.499 262.168 791.777 262.674 794.56 262.674C798.989 262.674 803.797 261.345 808.984 258.688C814.298 255.905 819.739 252.172 825.306 247.491C830.999 242.682 836.756 237.115 842.576 230.789C848.523 224.462 854.343 217.693 860.037 210.481C865.73 203.269 871.234 195.867 876.548 188.275C881.862 180.557 886.797 172.965 891.352 165.5C895.4 158.794 899.449 152.088 903.498 145.382C907.547 138.549 911.596 131.906 915.644 125.453L924.564 130.008C924.438 130.261 923.236 132.666 920.958 137.221C918.807 141.649 915.897 147.722 912.228 155.441C908.559 163.032 904.257 171.889 899.323 182.012C894.515 192.008 889.39 202.699 883.95 214.087C878.509 225.348 872.942 236.925 867.249 248.819C861.682 260.713 856.241 272.29 850.927 283.551C868.767 273.682 884.899 261.978 899.323 248.439C913.873 234.901 926.336 220.73 936.711 205.926L943.733 211.24C932.725 228.068 919.06 243.631 902.739 257.929C886.417 272.1 866.743 285.702 843.715 298.735C833.214 321.257 822.902 341.818 812.78 360.418C802.784 379.017 792.726 394.96 782.604 408.245C772.608 421.531 762.613 431.78 752.617 438.992C742.496 446.331 732.247 450 721.872 450C715.04 450 709.346 447.722 704.791 443.167C700.236 438.612 697.959 432.096 697.959 423.619C697.959 416.533 699.54 409.258 702.704 401.792C705.867 394.327 710.232 386.799 715.799 379.207C721.366 371.742 728.008 364.277 735.727 356.811C743.318 349.473 751.669 342.387 760.778 335.555C769.762 328.722 779.188 322.206 789.057 316.006C799.052 309.806 809.174 304.112 819.422 298.924C822.079 293.357 824.926 287.474 827.963 281.274C830.999 275.2 833.973 269.317 836.883 263.623C839.793 257.803 842.576 252.362 845.233 247.301C848.017 242.113 850.421 237.811 852.445 234.395ZM810.692 317.334C796.142 326.318 782.604 335.871 770.078 345.993C757.678 356.242 746.924 366.301 737.814 376.17C728.578 386.166 721.366 395.529 716.178 404.26C710.991 412.99 708.397 420.392 708.397 426.466C708.397 430.515 709.599 433.741 712.003 436.145C714.281 438.549 717.254 439.751 720.923 439.751C725.858 439.751 730.982 438.043 736.296 434.627C741.483 431.337 746.734 426.782 752.048 420.962C757.236 415.141 762.423 408.245 767.611 400.274C772.798 392.429 777.859 383.952 782.794 374.842C787.855 365.858 792.726 356.432 797.407 346.563C802.089 336.82 806.517 327.077 810.692 317.334Z" fill="#FFD755"/>
</g>
<defs>
<filter id="filter0_d_3047_23" x="0" y="0" width="1139.91" height="458" filterUnits="userSpaceOnUse" color-interpolation-filters="sRGB">
<feFlood flood-opacity="0" result="BackgroundImageFix"/>
<feColorMatrix in="SourceAlpha" type="matrix" values="0 0 0 0 0 0 0 0 0 0 0 0 0 0 0 0 0 0 127 0" result="hardAlpha"/>
<feOffset dy="4"/>
<feGaussianBlur stdDeviation="2"/>
<feComposite in2="hardAlpha" operator="out"/>
<feColorMatrix type="matrix" values="0 0 0 0 0 0 0 0 0 0 0 0 0 0 0 0 0 0 0.25 0"/>
<feBlend mode="normal" in2="BackgroundImageFix" result="effect1_dropShadow_3047_23"/>
<feBlend mode="normal" in="SourceGraphic" in2="effect1_dropShadow_3047_23" result="shape"/>
</filter>
</defs>
</svg>
